<svg width="155" height="80" viewBox="0 0 155 80" fill="none" xmlns="http://www.w3.org/2000/svg">
<path d="M147.626 78.1738C148.087 78.1738 148.494 78.0708 148.847 77.8648C149.199 77.6589 149.487 77.3951 149.712 77.0743C149.936 76.7527 150.097 76.3904 150.194 75.988C150.291 75.5842 150.315 75.19 150.267 74.8047C150.225 74.4698 150.139 74.1638 150.008 73.8852C149.877 73.6059 149.704 73.3636 149.489 73.1584C149.274 72.9524 149.02 72.7938 148.725 72.6827C148.429 72.5715 148.101 72.5152 147.74 72.5152C147.278 72.5152 146.872 72.6175 146.52 72.8235C146.166 73.0294 145.878 73.2932 145.653 73.6148C145.429 73.9364 145.268 74.2987 145.172 74.701C145.075 75.1048 145.05 75.499 145.099 75.8843C145.139 76.2185 145.226 76.5252 145.357 76.8038C145.489 77.0832 145.662 77.3247 145.877 77.5307C146.091 77.7367 146.345 77.8952 146.641 78.0064C146.936 78.1175 147.264 78.1738 147.626 78.1738ZM147.626 79.9995C147.021 79.9995 146.459 79.8987 145.938 79.6979C145.417 79.4964 144.959 79.2156 144.561 78.8548C144.163 78.4954 143.838 78.0731 143.585 77.5885C143.331 77.1046 143.169 76.5793 143.099 76.0125C143.015 75.3442 143.062 74.6906 143.239 74.0519C143.416 73.4133 143.707 72.8449 144.11 72.3478C144.515 71.8513 145.023 71.4497 145.636 71.146C146.249 70.8414 146.95 70.6888 147.74 70.6888C148.344 70.6888 148.907 70.7896 149.427 70.9911C149.947 71.1926 150.407 71.4735 150.804 71.8336C151.202 72.1937 151.527 72.616 151.781 73.0998C152.034 73.5852 152.196 74.1105 152.268 74.6758C152.35 75.3442 152.302 75.9984 152.126 76.6371C151.95 77.2758 151.659 77.8441 151.255 78.3413C150.851 78.8377 150.342 79.2386 149.729 79.5431C149.116 79.8469 148.415 79.9995 147.626 79.9995Z" fill="#005D28"/>
<path d="M133.248 70.8432H135.037L138.318 76.5663L139.119 70.8432H141.034L139.785 79.8457H138.135L134.73 73.9426L133.915 79.8457H132L133.248 70.8432Z" fill="#005D28"/>
<path d="M128.123 70.8432H130.063L128.815 79.8457H126.875L128.123 70.8432Z" fill="#005D28"/>
<path d="M116.115 70.8432H118.131L119.877 74.6495L122.692 70.8432H124.933L123.686 79.8457H121.721L122.525 73.9678L119.553 77.814H119.502L117.618 74.0071L116.807 79.8457H114.867L116.115 70.8432Z" fill="#005D28"/>
<path d="M109.84 76.0906L109.068 73.1201L107.497 76.0906H109.84ZM108.41 70.7795H110.275L112.801 79.8457H110.811L110.282 77.8259H106.554L105.47 79.8457H103.379L108.41 70.7795Z" fill="#005D28"/>
<path d="M98.2844 80C97.7807 80 97.2712 79.9229 96.7574 79.7688C96.2421 79.614 95.7696 79.3761 95.3385 79.0546C94.9089 78.733 94.5409 78.3255 94.2361 77.8327C93.9305 77.3393 93.7368 76.7591 93.6533 76.0908C93.5662 75.3869 93.6214 74.7119 93.818 74.0643C94.014 73.4174 94.3246 72.8432 94.7492 72.3416C95.1745 71.84 95.7028 71.4391 96.3379 71.139C96.9722 70.839 97.6885 70.6885 98.4869 70.6885C98.9477 70.6885 99.3745 70.7315 99.762 70.8175C100.151 70.9034 100.501 71.0168 100.812 71.1583C101.124 71.2991 101.403 71.4651 101.649 71.6533C101.895 71.8422 102.106 72.0385 102.283 72.2453L101.008 73.5441C100.712 73.2522 100.368 73.0062 99.9776 72.8047C99.5878 72.6031 99.1161 72.5016 98.5616 72.5016C98.0906 72.5016 97.6646 72.5987 97.2806 72.7913C96.8974 72.984 96.5767 73.2411 96.3183 73.5634C96.0614 73.8842 95.8719 74.2577 95.7529 74.6822C95.6332 75.1068 95.6034 75.5543 95.6615 76.0256C95.705 76.3775 95.8023 76.688 95.9532 76.9584C96.1049 77.2281 96.2943 77.4534 96.5222 77.6334C96.7508 77.8135 97.007 77.9505 97.2923 78.0446C97.576 78.1395 97.8743 78.1869 98.1849 78.1869C98.5289 78.1869 98.8251 78.1521 99.0733 78.0839C99.32 78.015 99.5348 77.9335 99.717 77.8387L99.95 76.3731H97.997L98.2379 74.663H102.067L101.378 79.1509C100.973 79.3991 100.522 79.6036 100.025 79.7622C99.5283 79.9207 98.9477 80 98.2844 80Z" fill="#005D28"/>
<path d="M87.6137 75.2284C87.9918 75.2284 88.3278 75.181 88.6225 75.0869C88.9179 74.992 89.1487 74.8446 89.3178 74.6475C89.5304 74.397 89.6139 74.091 89.5689 73.7295C89.5326 73.436 89.41 73.1952 89.2017 73.0055C88.9273 72.7558 88.4824 72.6306 87.8706 72.6306H86.2449L85.8878 75.2284H87.6137ZM84.5445 70.8435H87.7567C88.412 70.8435 88.9774 70.9183 89.4528 71.068C89.9289 71.2184 90.3317 71.4436 90.6612 71.743C91.1692 72.2061 91.4697 72.8114 91.5626 73.5576C91.6177 73.9932 91.5974 74.3926 91.5045 74.7527C91.4123 75.1128 91.2534 75.4262 91.0277 75.6915C90.59 76.2057 89.9557 76.5658 89.1247 76.7718L91.0059 79.8452H88.8018L87.0824 76.9652H85.6338L85.2361 79.8452H83.2969L84.5445 70.8435Z" fill="#005D28"/>
<path d="M75.1897 70.8432H81.7782L81.5307 72.6052H76.8698L76.6209 74.4435H80.7142L80.4645 76.1802H76.3698L76.1034 78.083H80.8398L80.5923 79.8457H73.9414L75.1897 70.8432Z" fill="#005D28"/>
<path d="M68.2853 75.383C68.932 75.383 69.4349 75.2437 69.7949 74.9651C70.1549 74.6865 70.3029 74.2901 70.2391 73.7759C70.2028 73.4751 70.0743 73.2268 69.8566 73.0298C69.7049 72.8927 69.5315 72.7912 69.3341 72.7282C69.1374 72.663 68.8913 72.6311 68.5974 72.6311H67.3382L66.963 75.383H68.2853ZM65.6421 70.844H68.4385C69.0684 70.844 69.6171 70.9136 70.0838 71.0559C70.5504 71.1967 70.9627 71.4308 71.3234 71.7568C71.835 72.2192 72.1377 72.8364 72.2335 73.6077C72.3031 74.1656 72.2538 74.6628 72.0854 75.1C71.917 75.5371 71.6608 75.9061 71.3168 76.2054C70.9714 76.5063 70.5483 76.733 70.0475 76.8871C69.5453 77.042 68.9929 77.119 68.3877 77.119H66.7126L66.3338 79.8457H64.3945L65.6421 70.844Z" fill="#005D28"/>
<path d="M137.014 61.2087C138.124 61.2087 139.212 61.0109 140.278 60.6137L136.355 56.8134L141.316 51.778L145.134 55.7146C145.569 54.7692 145.85 53.7318 145.978 52.6019L145.987 52.51C146.119 51.3504 146.048 50.2442 145.778 49.1906C145.508 48.1377 145.059 47.2071 144.433 46.398C143.806 45.5896 143.018 44.9487 142.071 44.4759C141.122 44.0025 140.05 43.7661 138.854 43.7661C137.658 43.7661 136.547 44.0025 135.523 44.4759C134.498 44.9487 133.59 45.5822 132.797 46.375C132.006 47.1693 131.365 48.0851 130.876 49.1224C130.383 50.1605 130.074 51.2593 129.944 52.4189L129.933 52.51C129.803 53.6703 129.873 54.7766 130.145 55.8294C130.417 56.8823 130.86 57.8055 131.477 58.5991C132.093 59.3934 132.87 60.0262 133.807 60.4989C134.745 60.9731 135.814 61.2087 137.014 61.2087ZM145.922 66.2449C144.477 67.1311 142.92 67.8246 141.249 68.3277C139.577 68.8315 137.846 69.0827 136.051 69.0827C133.63 69.0827 131.436 68.6485 129.471 67.7787C127.506 66.9081 125.861 65.7262 124.535 64.2303C123.208 62.7351 122.232 60.9798 121.606 58.9659C120.981 56.9505 120.796 54.7995 121.055 52.51L121.065 52.4189C121.322 50.1294 121.991 47.971 123.071 45.9408C124.151 43.9106 125.539 42.1405 127.234 40.6297C128.928 39.1189 130.857 37.9289 133.017 37.0583C135.177 36.1885 137.468 35.7543 139.89 35.7543C142.311 35.7543 144.505 36.1885 146.47 37.0583C148.435 37.9289 150.08 39.1115 151.407 40.6067C152.733 42.1027 153.71 43.8573 154.335 45.8719C154.961 47.8865 155.144 50.0375 154.887 52.327L154.876 52.4189C154.685 54.1275 154.261 55.7605 153.608 57.3173C152.955 58.874 152.105 60.3085 151.061 61.6207L153.976 64.414L149.02 69.4043L145.922 66.2449Z" fill="#005D28"/>
<path d="M106.51 68.9922C103.7 68.9922 101.082 68.5461 98.6562 67.6563C96.2293 66.7664 94.1456 65.429 92.4023 63.6485L97.9116 57.7291C100.762 60.2935 104.011 61.5753 107.659 61.5753C108.825 61.5753 109.735 61.3849 110.391 61.0048C111.046 60.624 111.414 60.0823 111.493 59.3814L111.503 59.2903C111.541 58.9553 111.499 58.6582 111.38 58.3996C111.258 58.1403 111.01 57.8891 110.634 57.6454C110.258 57.4016 109.747 57.166 109.099 56.937C108.453 56.7081 107.605 56.4724 106.555 56.2279C104.925 55.833 103.42 55.3981 102.039 54.9268C100.656 54.4541 99.4763 53.845 98.5002 53.0974C97.5219 52.3513 96.7888 51.4229 96.3026 50.31C95.8141 49.1986 95.6632 47.8189 95.8483 46.1733L95.8584 46.0837C96.0261 44.5899 96.4557 43.2184 97.151 41.9699C97.8448 40.7207 98.7731 39.6397 99.9365 38.7246C101.101 37.811 102.458 37.1027 104.011 36.6003C105.561 36.0972 107.28 35.8453 109.162 35.8453C111.853 35.8453 114.211 36.2069 116.238 36.9285C118.264 37.651 120.05 38.7179 121.595 40.1294L116.538 46.4215C115.22 45.3842 113.835 44.5981 112.386 44.0631C110.937 43.5296 109.509 43.2621 108.103 43.2621C107.058 43.2621 106.251 43.46 105.682 43.8571C105.115 44.2535 104.799 44.7403 104.734 45.319L104.723 45.4101C104.682 45.7762 104.728 46.0962 104.862 46.3697C104.996 46.6445 105.252 46.8957 105.629 47.1247C106.007 47.3529 106.534 47.5818 107.211 47.8101C107.887 48.0383 108.752 48.2746 109.8 48.5184C111.549 48.9141 113.118 49.3786 114.509 49.9121C115.899 50.4456 117.059 51.0924 117.99 51.8549C118.921 52.6166 119.594 53.5376 120.011 54.6193C120.427 55.7011 120.552 56.9881 120.383 58.4804L120.374 58.5723C120.188 60.2179 119.717 61.6805 118.96 62.9594C118.203 64.239 117.222 65.329 116.014 66.227C114.807 67.1265 113.399 67.8119 111.792 68.2838C110.184 68.7566 108.423 68.9922 106.51 68.9922Z" fill="#005D28"/>
<path d="M69.2572 36.395H77.9569L76.4945 49.3971L88.7649 36.395H99.0787L85.6449 50.1759L95.8781 68.4424H85.4286L78.875 56.5398L75.2846 60.1564L74.3528 68.4424H65.6523L69.2572 36.395Z" fill="#005D28"/>
<path fill-rule="evenodd" clip-rule="evenodd" d="M55.414 26.2615C54.3464 25.8844 53.8129 25.0264 52.9086 24.3773C52.1379 23.8231 51.1886 23.114 50.3765 22.5694C48.6325 21.398 46.6606 20.6022 44.4187 19.8153C31.4922 15.2793 19.6101 19.2366 7.09795 22.3575C4.88366 22.9095 2.22157 23.806 2.00916e-05 24.2002C-0.0108663 26.5098 4.40538 32.6463 5.60579 34.4171L10.6876 41.133C13.3438 44.2613 17.7652 48.4899 21.1436 50.6431C25.0242 53.1171 27.29 54.5212 32.4299 55.2251C41.6042 56.4825 50.0542 49.994 50.2197 41.2212C50.3496 34.2704 46.1939 29.1349 40.2362 27.2174C37.7969 26.4312 35.7379 26.3571 32.8813 26.3549C26.6028 26.3512 21.574 27.3552 16.5118 28.8926C16.6119 30.3775 16.7157 30.888 17.4371 31.7794C20.6689 31.8512 25.6447 29.0734 36.4368 29.9114C47.6208 30.7813 50.0891 45.1586 41.5324 50.0281C37.2838 52.4473 34.5694 52.7814 29.6176 51.1973C24.9981 49.7176 18.5817 44.6303 15.429 40.9589C13.0151 38.1485 5.39605 28.9734 5.13042 26.4868C8.08281 24.8641 25.0576 21.5032 29.1139 21.2083C35.0796 20.7756 42.465 21.9663 47.39 24.873C48.9315 25.7836 50.674 26.8002 51.804 28.0872C52.9493 29.3898 54.1541 30.2515 55.1687 32.1387C62.5721 45.9077 52.7054 64.9811 55.2587 79.3866C56.5316 80.1949 57.1435 80.2001 58.4121 79.4273C58.7822 77.6809 58.4549 75.1624 58.4839 73.2701C58.518 71.0361 58.7082 69.323 58.8468 67.0572C59.0029 64.5365 60.9784 54.5627 61.3231 50.2822C62.7637 32.4425 56.4663 32.8152 60.307 21.907C62.4749 15.7498 66.9615 11.7605 72.2095 8.23434C73.6458 7.27038 79.2015 4.37476 80.9578 4.27251C81.5181 10.3986 82.5364 18.166 79.5513 23.726C78.2834 26.0867 76.7579 27.9998 74.1865 29.0675C71.9548 29.9952 67.3926 30.6176 65.0818 29.3135C65.0056 23.9898 70.5925 16.8545 74.0849 14.2997C74.7199 13.8352 74.1611 14.2345 74.7185 13.9055C75.2621 13.584 75.5008 13.4499 75.974 13.0794C76.8333 12.4059 77.3131 12.1369 78.3161 11.4952C78.2732 10.5787 77.1715 9.24722 76.6816 8.67669C73.6226 9.01308 60.6184 20.517 61.4654 29.8492C61.9298 34.9595 74.246 34.2875 79.0992 29.9863C86.1427 23.7438 85.999 10.4127 84.1925 1.31095L83.8652 0.223251C83.8434 0.166939 83.8101 0.0758057 83.7694 0.00837708C81.3004 -0.168709 75.5248 2.5098 73.6567 3.50045C67.8034 6.60204 62.7688 10.512 59.2024 16.141C55.4858 22.0078 56.4547 24.5485 55.414 26.2615Z" fill="#56A634"/>
</svg>
