<svg width="401" height="606" viewBox="0 0 401 606" fill="none" xmlns="http://www.w3.org/2000/svg">
<path d="M355.991 305.88C283.877 263.145 194.847 302.937 194.847 302.937C194.847 302.937 247.79 299.994 265.438 317.523C265.438 317.523 231.381 326.463 218.949 339.541C218.949 339.541 234.923 335.245 241.365 340.207C223.178 352.915 216.683 373.752 204.436 394.383C191.443 416.294 176.105 436.701 157.058 448.434C149.81 452.894 141.793 455.875 133.791 455.257C132.083 455.124 126.94 452.421 125.519 453.109C125.55 453.109 154.71 439.163 161.996 412.599C149.485 424.113 135.329 434.123 120.203 436.937C106.721 439.446 84.9824 434.519 79.9874 413.991C78.2447 406.838 79.4927 398.838 82.1115 392.2C85.994 382.353 92.5111 373.842 98.0828 365.714C104.386 356.5 110.976 347.671 117.855 339.227C118.592 338.321 120.322 336.34 122.843 333.415C125.409 350.273 132.235 374.229 149.539 401.158C149.539 401.158 127.24 353.358 166.673 278.044C168.083 276.097 169.502 274.112 170.931 272.09C172.131 280.334 176.392 296.707 191.522 313.789C191.522 313.789 171.801 283.513 201.884 224.427C210.587 209.749 218.664 194.4 226.074 178.456C226.074 178.456 256.551 194.911 265.344 255.789C265.344 255.789 311.272 147.833 200.255 96.7413C200.119 67.4107 215.857 42.3076 237.158 38.1917C242.983 37.0524 248.868 36.5755 254.752 36.7654C215.766 11.542 177.454 61.5377 177.454 61.5377C186.439 15.7437 267.455 10.6741 267.455 10.6741C185.238 -31.4594 137.447 64.7384 137.447 64.7384C138.093 50.8314 151.852 31.206 151.852 31.206C129.565 45.3408 103.157 100.806 97.1595 113.841C95.6436 107.263 94.4366 103.027 94.4366 103.027C102.249 75.724 101.42 59.8793 101.42 59.8793C81.1818 112.539 28.6384 156.438 28.6384 156.438C27.8726 176.201 21.6675 179.208 17.1484 185.558C12.6293 191.908 0.0898471 191.569 0.0898471 191.569C-1.99008 235.82 32.7321 223.456 32.7321 223.456C32.7321 223.456 26.4293 213.768 31.6669 203.985C35.8678 196.131 49.34 197.274 59.6357 190.941C59.6357 190.941 64.3628 241.723 38.184 240.709C38.184 240.709 42.6181 260.404 65.0466 251.45C65.0466 251.45 64.3407 232.07 67.4984 223.864C70.6561 215.658 84.4404 195.813 95.9304 184.617C99.6081 181.039 101.631 175.208 102.548 168.291C117.228 168.158 133.149 191.092 133.149 191.092C132.027 177.284 115.523 159.957 115.523 159.957C119.62 159.183 133.322 162.835 133.322 162.835C113.856 154.767 118.734 144.258 118.734 144.258C118.734 144.258 147.44 128.22 154.9 164.451C160.824 193.236 118.309 252.524 74.0218 282.517C68.9509 285.971 63.7505 289.058 58.4413 291.766C52.4722 294.841 46.3241 297.226 40.0623 298.898C40.0623 298.898 62.0686 301.931 75.8087 293.854C75.8087 293.854 -42.3691 417.776 55.7846 524.641C55.7846 524.641 46.2674 495.255 48.7854 481.52C48.7854 481.52 97.67 527.365 96.2109 606C96.2109 606 111.338 580.102 103.554 505.038C103.554 505.038 132.48 527.434 175.091 505.171C175.091 505.171 157.537 502.851 150.194 492.45C150.194 492.45 244.5 481.335 281.652 526.523C281.652 526.523 263.374 465.637 197.081 460.79C279.245 367.492 324.628 417.651 324.628 417.651C299.458 379.844 276.304 371.557 265.838 369.808C278.838 354.492 291.68 341.719 299.874 339.391C304.957 337.946 310.177 337.624 315.334 338.437C326.995 340.258 345.307 352.614 353.384 371.2C353.384 371.2 358.452 358.921 355.534 347.313C355.534 347.313 399.461 375.947 391.926 441.93C391.923 441.951 428.104 348.619 355.991 305.88ZM45.8924 163.673C45.8924 163.673 54.9968 137.925 63.077 144.653C71.1572 151.381 45.8892 163.694 45.8892 163.694L45.8924 163.673Z" fill="#710521"/>
</svg>
